<svg width="79" height="79" viewBox="0 0 79 79" fill="none" xmlns="http://www.w3.org/2000/svg">
<rect width="79" height="79" rx="8" fill="#2C266C"/>
<path d="M38.2846 24.3661C39.2128 23.8302 40.3564 23.8302 41.2846 24.3661L59.0692 34.634C59.9974 35.1699 60.5692 36.1603 60.5692 37.2321V57.768C60.5692 58.8398 59.9974 59.8302 59.0692 60.3661L41.2846 70.634C40.3564 71.1699 39.2128 71.1699 38.2846 70.634L20.5 60.3661C19.5718 59.8302 19 58.8398 19 57.768V35.5001L29.3923 29.5001L38.2846 24.3661Z" fill="#CF2228"/>
<path d="M20.5 13.134C19.5718 13.6699 19 14.6603 19 15.7321L19 35.5001L29.3923 29.5001V17.5L29.3923 9.73206C29.3923 8.96226 28.559 8.48113 27.8923 8.86604L20.5 13.134Z" fill="#CF2228"/>
<path d="M38.301 47.1077C39.2191 47.6599 40.362 47.6806 41.2995 47.1619L60.5692 36.5V57.768C60.5692 58.8398 59.9974 59.8302 59.0692 60.3661L41.2846 70.634C40.3564 71.1699 39.2128 71.1699 38.2846 70.634L20.5 60.3661C19.5718 59.8302 19 58.8398 19 57.768V35.5L38.301 47.1077Z" fill="#85152D"/>
<path d="M40.0494 36.1916C40.3679 36.0077 40.7604 36.0077 41.0789 36.1916L50.617 41.6984C50.9355 41.8823 51.1317 42.2221 51.1317 42.5899V53.6036C51.1317 53.9714 50.9355 54.3112 50.617 54.4951L41.0789 60.0019C40.7604 60.1858 40.3679 60.1858 40.0494 60.0019L30.5113 54.4951C30.1928 54.3112 29.9966 53.9714 29.9966 53.6036V42.5899C29.9966 42.2221 30.1928 41.8823 30.5113 41.6984L40.0494 36.1916Z" fill="white"/>
<path d="M29.9534 42.0258L40.5641 35.8944L40.5641 48.0967L29.9534 53.9326L29.9534 42.0258Z" fill="#4E467F"/>
<path d="M51.1748 41.7303L51.1748 53.9326L40.5641 48.0967L40.5641 35.8944L51.1748 41.7303Z" fill="#C3C0D5"/>
</svg>
