<svg preserveAspectRatio="none" width="100%" height="100%" overflow="visible" style="display: block;" viewBox="0 0 32.0235 32.0235" fill="none" xmlns="http://www.w3.org/2000/svg">
<g id="fa7-solid:pen-square">
<path id="Vector" d="M8.0061 4.80357C6.2398 4.80357 4.80375 6.23963 4.80375 8.00592V24.0177C4.80375 25.7839 6.2398 27.22 8.0061 27.22H24.0178C25.7841 27.22 27.2202 25.7839 27.2202 24.0177V8.00592C27.2202 6.23963 25.7841 4.80357 24.0178 4.80357H8.0061ZM21.1057 10.1925L21.8262 10.9131C22.6068 11.6936 22.6068 12.9595 21.8262 13.7451L20.6354 14.936L17.0827 11.3834L18.2736 10.1925C19.0542 9.41195 20.3201 9.41195 21.1057 10.1925ZM10.8031 17.663L15.3815 13.0796L18.9341 16.6322L14.3507 21.2106C14.1456 21.4157 13.8904 21.5609 13.6052 21.6309L10.598 22.3815C10.3228 22.4515 10.0376 22.3714 9.83744 22.1713C9.63729 21.9712 9.55723 21.6859 9.62729 21.4107L10.3778 18.4035C10.4479 18.1233 10.593 17.8631 10.7981 17.658L10.8031 17.663Z" fill="var(--fill-0, #2C266C)"/>
</g>
</svg>
