<svg preserveAspectRatio="none" width="100%" height="100%" overflow="visible" style="display: block;" viewBox="0 0 32.4238 32.4238" fill="none" xmlns="http://www.w3.org/2000/svg">
<g id="famicons:location-sharp">
<path id="Vector" d="M16.2119 2.02667C10.6182 2.02667 6.07952 6.11194 6.07952 11.1459C6.07952 19.2518 16.2119 30.3975 16.2119 30.3975C16.2119 30.3975 26.3444 19.2518 26.3444 11.1459C26.3444 6.11194 21.8057 2.02667 16.2119 2.02667ZM16.2119 16.2121C15.4103 16.2121 14.6267 15.9744 13.9602 15.529C13.2937 15.0837 12.7742 14.4507 12.4675 13.7101C12.1607 12.9695 12.0805 12.1546 12.2369 11.3684C12.3932 10.5822 12.7792 9.86003 13.3461 9.29321C13.9129 8.7264 14.6351 8.34039 15.4213 8.184C16.2074 8.02762 17.0224 8.10788 17.7629 8.41464C18.5035 8.7214 19.1365 9.24088 19.5819 9.90739C20.0272 10.5739 20.2649 11.3575 20.2649 12.1591C20.2637 13.2337 19.8364 14.2639 19.0765 15.0237C18.3167 15.7835 17.2865 16.2109 16.2119 16.2121Z" fill="var(--fill-0, #2C266C)"/>
</g>
</svg>
