<svg preserveAspectRatio="none" width="100%" height="100%" overflow="visible" style="display: block;" viewBox="0 0 38.4282 38.4282" fill="none" xmlns="http://www.w3.org/2000/svg">
<g id="mdi:people">
<path id="Vector" d="M25.6187 27.2201V30.4224H3.20229V27.2201C3.20229 27.2201 3.20229 20.8154 14.4105 20.8154C25.6187 20.8154 25.6187 27.2201 25.6187 27.2201ZM20.0146 12.0089C20.0146 10.9005 19.6859 9.81703 19.0701 8.89544C18.4544 7.97385 17.5791 7.25555 16.5551 6.83139C15.5311 6.40723 14.4043 6.29625 13.3172 6.51249C12.2301 6.72872 11.2315 7.26246 10.4478 8.04621C9.66405 8.82996 9.13031 9.82851 8.91408 10.9156C8.69784 12.0027 8.80882 13.1295 9.23298 14.1535C9.65714 15.1775 10.3754 16.0528 11.297 16.6686C12.2186 17.2843 13.3021 17.613 14.4105 17.613C15.8968 17.613 17.3222 17.0226 18.3732 15.9716C19.4242 14.9206 20.0146 13.4952 20.0146 12.0089ZM25.5226 20.8154C26.507 21.5771 27.3124 22.5453 27.8823 23.6519C28.4521 24.7584 28.7726 25.9764 28.8211 27.2201V30.4224H35.2258V27.2201C35.2258 27.2201 35.2258 21.4078 25.5226 20.8154ZM24.0175 6.4048C22.9156 6.39968 21.838 6.72909 20.9273 7.3495C21.8999 8.70847 22.4229 10.3377 22.4229 12.0089C22.4229 13.6801 21.8999 15.3094 20.9273 16.6683C21.838 17.2887 22.9156 17.6181 24.0175 17.613C25.5038 17.613 26.9293 17.0226 27.9802 15.9716C29.0312 14.9206 29.6216 13.4952 29.6216 12.0089C29.6216 10.5226 29.0312 9.09718 27.9802 8.04621C26.9293 6.99524 25.5038 6.4048 24.0175 6.4048Z" fill="var(--fill-0, #2C266C)"/>
</g>
</svg>
