<svg width="30" height="30" viewBox="0 0 30 30" fill="none" xmlns="http://www.w3.org/2000/svg">
<path fill-rule="evenodd" clip-rule="evenodd" d="M30 13.2614C30 6.62767 23.2843 1.25 14.9999 1.25C6.71562 1.25 -0.000216451 6.62767 5.23229e-09 13.2614C5.23229e-09 19.1743 5.3359 24.0892 12.3624 25.0874L12.3655 25.0879C12.5305 25.1112 12.697 25.1318 12.8639 25.151C14.3574 25.462 14.1104 26.7459 13.9045 27.8156C13.7807 28.4594 13.6717 29.0256 13.966 29.2556C14.8671 29.9599 21.6948 25.3951 25.8428 21.5611C26.4432 21.0583 26.9892 20.5137 27.4741 19.9336L27.4829 19.9241C27.5986 19.7966 27.6903 19.6812 27.7606 19.5767C29.18 17.7419 30 15.5785 30 13.2614ZM9.32263 17.092H6.29735C5.86703 17.092 5.51506 16.7399 5.51506 16.3095V10.5073C5.51506 10.077 5.86703 9.72502 6.29735 9.72502H6.36262C6.79294 9.72502 7.14491 10.077 7.14491 10.5073V15.462H9.32263C9.75295 15.462 10.1049 15.814 10.1049 16.2443V16.3096C10.1049 16.7399 9.75295 17.092 9.32263 17.092ZM25.0435 13.3898V13.4551C25.0435 13.8853 24.6914 14.2374 24.2611 14.2372H22.0835V15.4759H24.2611C24.6914 15.4759 25.0435 15.8278 25.0435 16.2582V16.3234C25.0435 16.7538 24.6914 17.1058 24.2611 17.1058H21.2358C20.8055 17.1058 20.4535 16.7538 20.4535 16.3234V10.5213C20.4535 10.0909 20.8055 9.73898 21.2358 9.73898H24.2611C24.6914 9.73898 25.0435 10.0909 25.0435 10.5213V10.5865C25.0435 11.0169 24.6914 11.3688 24.2611 11.3688H22.0835V12.6075H24.2611C24.6914 12.6075 25.0435 12.9595 25.0435 13.3898ZM19.2255 16.8587C19.1791 16.9153 19.1132 16.9634 19.0349 17.0006C18.9225 17.0607 18.7969 17.092 18.6694 17.092H18.6042C18.4993 17.092 18.3991 17.071 18.3074 17.0331C18.1881 16.9884 18.0811 16.9152 18.0029 16.8085C17.9822 16.7836 17.9629 16.7572 17.9454 16.7299L15.0974 12.84V16.3097C15.0974 16.74 14.7454 17.0921 14.3151 17.0921H14.2498C13.8194 17.0921 13.4674 16.74 13.4674 16.3097V10.5075C13.4674 10.0772 13.8195 9.72524 14.2498 9.72524H14.3151C14.6049 9.72524 14.8593 9.88498 14.9944 10.1208L17.822 13.9134V10.5075C17.822 10.0772 18.174 9.72524 18.6043 9.72524H18.6696C19.1 9.72524 19.452 10.0772 19.452 10.5075V16.3097C19.4518 16.5153 19.3703 16.7128 19.2255 16.8587ZM11.5839 17.092H11.5186C11.0883 17.092 10.7362 16.7399 10.7362 16.3096V10.5074C10.7362 10.0771 11.0883 9.72513 11.5186 9.72513H11.5839C12.0142 9.72513 12.3662 10.0771 12.3662 10.5074V16.3096C12.3662 16.7399 12.0142 17.092 11.5839 17.092Z" fill="#2C266C"/>
</svg>
