<svg width="30" height="30" viewBox="0 0 30 30" fill="none" xmlns="http://www.w3.org/2000/svg">
<g clip-path="url(#clip0_41_95)">
<path fill-rule="evenodd" clip-rule="evenodd" d="M28.4332 6.04246C28.8986 6.51092 29.2329 7.09341 29.4025 7.73164C30.0298 10.0873 30.0298 14.9998 30.0298 14.9998C30.0298 14.9998 30.0298 19.9123 29.4025 22.268C29.2329 22.9062 28.8986 23.4887 28.4332 23.9572C27.9677 24.4256 27.3874 24.7636 26.7502 24.9373C24.4048 25.568 15.0298 25.568 15.0298 25.568C15.0298 25.568 5.65479 25.568 3.30933 24.9373C2.6722 24.7636 2.09186 24.4256 1.62639 23.9572C1.16093 23.4887 0.826667 22.9062 0.657058 22.268C0.0297852 19.9123 0.0297852 14.9998 0.0297852 14.9998C0.0297852 14.9998 0.0297852 10.0873 0.657058 7.73164C0.826667 7.09341 1.16093 6.51092 1.62639 6.04246C2.09186 5.574 2.6722 5.23602 3.30933 5.06232C5.65479 4.43164 15.0298 4.43164 15.0298 4.43164C15.0298 4.43164 24.4048 4.43164 26.7502 5.06232C27.3874 5.23602 27.9677 5.574 28.4332 6.04246ZM19.8025 14.9999L11.9616 10.5391V19.4607L19.8025 14.9999Z" fill="#2C266C"/>
</g>
<defs>
<clipPath id="clip0_41_95">
<rect width="30" height="30" fill="white"/>
</clipPath>
</defs>
</svg>
