<svg width="30" height="30" viewBox="0 0 30 30" fill="none" xmlns="http://www.w3.org/2000/svg">
<g clip-path="url(#clip0_41_68)">
<path d="M15 0C23.2842 0 30 6.71574 30 15C30 22.669 24.2444 28.993 16.8173 29.8901V19.5837L20.8751 19.5837L21.7168 15H16.8173V13.3789C16.8173 12.1677 17.0548 11.3292 17.5998 10.7935C18.1449 10.2578 18.9973 10.0249 20.2271 10.0249C20.5384 10.0249 20.8249 10.028 21.0791 10.0342C21.4488 10.0432 21.7502 10.0588 21.96 10.0808V5.9256C21.8762 5.9023 21.7772 5.87901 21.6663 5.85608C21.4151 5.80413 21.1028 5.75405 20.767 5.71008C20.0654 5.61817 19.2616 5.55288 18.6992 5.55288C16.428 5.55288 14.7115 6.03878 13.5134 7.04524C12.0674 8.25989 11.3764 10.2328 11.3764 13.0248V15H8.28323V19.5837H11.3764V29.5583C4.8429 27.9373 0 22.0347 0 15C0 6.71574 6.71574 0 15 0Z" fill="#2C266C"/>
</g>
<defs>
<clipPath id="clip0_41_68">
<rect width="30" height="30" fill="white"/>
</clipPath>
</defs>
</svg>
