<svg preserveAspectRatio="none" width="100%" height="100%" overflow="visible" style="display: block;" viewBox="0 0 61.5 61.5" fill="none" xmlns="http://www.w3.org/2000/svg">
<g id="Frame 29">
<rect x="0.375" y="0.375" width="60.75" height="60.75" rx="30.375" fill="var(--fill-0, white)" fill-opacity="0.08"/>
<rect x="0.375" y="0.375" width="60.75" height="60.75" rx="30.375" stroke="var(--stroke-0, #E0E0E0)" stroke-width="0.75"/>
<path id="Arrow 1" d="M24.375 30C23.9608 30 23.625 30.3358 23.625 30.75C23.625 31.1642 23.9608 31.5 24.375 31.5V30.75V30ZM37.6553 31.2803C37.9482 30.9874 37.9482 30.5126 37.6553 30.2197L32.8824 25.4467C32.5895 25.1538 32.1146 25.1538 31.8217 25.4467C31.5288 25.7396 31.5288 26.2145 31.8217 26.5074L36.0643 30.75L31.8217 34.9926C31.5288 35.2855 31.5288 35.7604 31.8217 36.0533C32.1146 36.3462 32.5895 36.3462 32.8824 36.0533L37.6553 31.2803ZM24.375 30.75V31.5H37.125V30.75V30H24.375V30.75Z" fill="var(--stroke-0, #626262)"/>
</g>
</svg>
