<svg preserveAspectRatio="none" width="100%" height="100%" overflow="visible" style="display: block;" viewBox="0 0 61.5 61.5" fill="none" xmlns="http://www.w3.org/2000/svg">
<g id="Frame 29">
<rect x="0.375" y="0.375" width="60.75" height="60.75" rx="30.375" stroke="var(--stroke-0, #E0E0E0)" stroke-width="0.75"/>
<path id="Arrow 1" d="M37.125 30C37.5392 30 37.875 30.3358 37.875 30.75C37.875 31.1642 37.5392 31.5 37.125 31.5V30.75V30ZM23.8447 31.2803C23.5518 30.9874 23.5518 30.5126 23.8447 30.2197L28.6176 25.4467C28.9105 25.1538 29.3854 25.1538 29.6783 25.4467C29.9712 25.7396 29.9712 26.2145 29.6783 26.5074L25.4357 30.75L29.6783 34.9926C29.9712 35.2855 29.9712 35.7604 29.6783 36.0533C29.3854 36.3462 28.9105 36.3462 28.6176 36.0533L23.8447 31.2803ZM37.125 30.75V31.5H24.375V30.75V30H37.125V30.75Z" fill="var(--stroke-0, #626262)"/>
</g>
</svg>
